<svg xmlns="http://www.w3.org/2000/svg" width="100" height="100" viewBox="0 0 100 100">
  <!-- Pozadí - šálek kávy -->
  <circle cx="50" cy="50" r="45" fill="#697077"/>
  <circle cx="50" cy="50" r="42" fill="#8B7355"/>
  
  <!-- Obličej pana Kafánka -->
  <circle cx="50" cy="50" r="35" fill="#D2B48C"/>
  
  <!-- Oči -->
  <ellipse cx="40" cy="45" rx="4" ry="6" fill="#4a5058"/>
  <ellipse cx="60" cy="45" rx="4" ry="6" fill="#4a5058"/>
  <circle cx="41" cy="44" r="1.5" fill="white"/>
  <circle cx="61" cy="44" r="1.5" fill="white"/>
  
  <!-- Úsměv -->
  <path d="M 35 58 Q 50 68 65 58" stroke="#4a5058" stroke-width="2" fill="none" stroke-linecap="round"/>
  
  <!-- Nos -->
  <ellipse cx="50" cy="52" rx="3" ry="4" fill="#C19A6B"/>
  
  <!-- Vousy/knír -->
  <path d="M 30 56 Q 35 54 40 56" stroke="#8B7355" stroke-width="1.5" fill="none"/>
  <path d="M 60 56 Q 65 54 70 56" stroke="#8B7355" stroke-width="1.5" fill="none"/>
  
  <!-- Kávový šálek - ucho -->
  <path d="M 75 45 Q 82 50 75 55" stroke="#697077" stroke-width="3" fill="none"/>
  
  <!-- Para z kávy -->
  <path d="M 42 20 Q 40 15 42 10" stroke="#ddd" stroke-width="1.5" fill="none" opacity="0.7" stroke-linecap="round"/>
  <path d="M 50 18 Q 48 13 50 8" stroke="#ddd" stroke-width="1.5" fill="none" opacity="0.7" stroke-linecap="round"/>
  <path d="M 58 20 Q 56 15 58 10" stroke="#ddd" stroke-width="1.5" fill="none" opacity="0.7" stroke-linecap="round"/>
</svg>
